<svg xmlns="http://www.w3.org/2000/svg" width="187" height="77" viewBox="0 0 187 77" role="img" aria-label="nianav OS logo">
  <defs>
    
  </defs>
  <g shape-rendering="geometricPrecision">
    <circle class="ring" cx="37.5" cy="37.5" r="31.25"></circle>
    <circle class="teal" cx="37.8" cy="37.0" r="12.35"></circle>
    <path d="M 58.962 46.668 Q 61.136 46.668 62.474 47.926 Q 63.815 49.185 63.815 51.968 L 63.815 61.400 L 59.575 61.400 L 59.575 52.945 Q 59.575 51.384 59.111 50.601 Q 58.648 49.819 57.637 49.819 Q 56.101 49.819 55.571 51.053 Q 55.041 52.282 55.041 54.589 L 55.041 61.400 L 50.801 61.400 L 50.801 46.933 L 54.010 46.933 L 54.590 48.788 L 54.776 48.788 Q 55.439 47.674 56.524 47.173 Q 57.612 46.668 58.962 46.668 Z M 69.486 41.260 Q 70.414 41.260 71.076 41.670 Q 71.739 42.080 71.739 43.194 Q 71.739 44.283 71.076 44.705 Q 70.414 45.127 69.486 45.127 Q 68.530 45.127 67.867 44.705 Q 67.205 44.283 67.205 43.194 Q 67.205 42.080 67.867 41.670 Q 68.530 41.260 69.486 41.260 Z M 71.577 46.933 L 71.577 61.400 L 67.337 61.400 L 67.337 46.933 L 71.577 46.933 Z M 81.330 46.639 Q 84.005 46.639 85.475 47.897 Q 86.949 49.156 86.949 51.752 L 86.949 61.400 L 84.005 61.400 L 83.185 59.437 L 83.077 59.437 Q 82.204 60.605 81.235 61.135 Q 80.270 61.665 78.547 61.665 Q 76.771 61.665 75.566 60.539 Q 74.361 59.413 74.361 57.081 Q 74.361 54.775 75.885 53.678 Q 77.409 52.576 80.378 52.469 L 82.709 52.390 L 82.709 51.752 Q 82.709 50.614 82.204 50.084 Q 81.703 49.554 80.825 49.554 Q 79.926 49.554 78.945 49.860 Q 77.964 50.162 76.982 50.614 L 75.686 47.939 Q 76.850 47.330 78.266 46.986 Q 79.686 46.639 81.330 46.639 Z M 81.462 54.750 Q 79.926 54.800 79.301 55.438 Q 78.680 56.075 78.680 57.106 Q 78.680 58.009 79.115 58.394 Q 79.554 58.775 80.270 58.775 Q 81.276 58.775 82.005 58.021 Q 82.734 57.268 82.734 55.889 L 82.734 54.696 L 81.462 54.750 Z M 98.633 46.668 Q 100.807 46.668 102.144 47.926 Q 103.486 49.185 103.486 51.968 L 103.486 61.400 L 99.246 61.400 L 99.246 52.945 Q 99.246 51.384 98.782 50.601 Q 98.318 49.819 97.308 49.819 Q 95.772 49.819 95.242 51.053 Q 94.712 52.282 94.712 54.589 L 94.712 61.400 L 90.472 61.400 L 90.472 46.933 L 93.681 46.933 L 94.260 48.788 L 94.447 48.788 Q 95.109 47.674 96.194 47.173 Q 97.283 46.668 98.633 46.668 Z M 113.156 46.639 Q 115.831 46.639 117.301 47.897 Q 118.775 49.156 118.775 51.752 L 118.775 61.400 L 115.831 61.400 L 115.011 59.437 L 114.904 59.437 Q 114.030 60.605 113.061 61.135 Q 112.096 61.665 110.374 61.665 Q 108.598 61.665 107.393 60.539 Q 106.188 59.413 106.188 57.081 Q 106.188 54.775 107.712 53.678 Q 109.235 52.576 112.204 52.469 L 114.535 52.390 L 114.535 51.752 Q 114.535 50.614 114.030 50.084 Q 113.529 49.554 112.651 49.554 Q 111.753 49.554 110.771 49.860 Q 109.790 50.162 108.809 50.614 L 107.513 47.939 Q 108.676 47.330 110.092 46.986 Q 111.513 46.639 113.156 46.639 Z M 113.289 54.750 Q 111.753 54.800 111.128 55.438 Q 110.506 56.075 110.506 57.106 Q 110.506 58.009 110.941 58.394 Q 111.380 58.775 112.096 58.775 Q 113.103 58.775 113.831 58.021 Q 114.560 57.268 114.560 55.889 L 114.560 54.696 L 113.289 54.750 Z M 125.718 61.400 L 120.497 46.933 L 124.923 46.933 L 127.333 55.172 Q 127.544 55.889 127.635 56.696 Q 127.731 57.504 127.760 58.141 L 127.863 58.141 Q 127.892 57.450 127.996 56.671 Q 128.103 55.889 128.314 55.172 L 130.753 46.933 L 135.204 46.933 L 129.983 61.400 L 125.718 61.400 Z" fill="#FFFFFF" fill-rule="nonzero"></path>
    <g transform="translate(157.9 50.56) scale(0.92) translate(-157.9 -50.56)">
      <path d="M 159.353 50.547 Q 159.353 53.787 158.359 56.196 Q 157.369 58.605 155.293 59.951 Q 153.221 61.292 149.923 61.292 Q 146.679 61.292 144.589 59.951 Q 142.504 58.605 141.496 56.182 Q 140.487 53.759 140.487 50.515 Q 140.487 47.276 141.496 44.881 Q 142.504 42.485 144.607 41.158 Q 146.711 39.830 149.950 39.830 Q 153.221 39.830 155.293 41.158 Q 157.369 42.485 158.359 44.894 Q 159.353 47.303 159.353 50.547 Z M 145.451 50.547 Q 145.451 53.819 146.501 55.703 Q 147.555 57.583 149.923 57.583 Q 152.345 57.583 153.367 55.703 Q 154.389 53.819 154.389 50.547 Q 154.389 47.249 153.367 45.378 Q 152.345 43.507 149.950 43.507 Q 147.555 43.507 146.501 45.378 Q 145.451 47.249 145.451 50.547 Z M 175.325 55.219 Q 175.325 57.993 173.468 59.645 Q 171.615 61.292 167.879 61.292 Q 166.127 61.292 164.753 60.973 Q 163.380 60.649 162.098 60.037 L 162.098 55.917 Q 163.585 56.561 165.146 57.104 Q 166.711 57.642 168.111 57.642 Q 169.457 57.642 170.055 57.017 Q 170.653 56.387 170.653 55.425 Q 170.653 54.257 169.717 53.527 Q 168.782 52.797 166.975 52.067 Q 165.807 51.569 164.726 50.839 Q 163.645 50.109 162.956 48.900 Q 162.271 47.687 162.271 45.789 Q 162.271 42.983 164.183 41.422 Q 166.099 39.857 169.279 39.857 Q 171.004 39.857 172.478 40.241 Q 173.951 40.619 175.297 41.317 L 173.805 44.767 Q 172.523 44.183 171.369 43.863 Q 170.215 43.539 169.133 43.539 Q 168.052 43.539 167.482 44.123 Q 166.916 44.707 166.916 45.643 Q 166.916 46.373 167.308 46.884 Q 167.705 47.395 168.549 47.878 Q 169.398 48.357 170.712 49.028 Q 172.172 49.758 173.208 50.561 Q 174.243 51.364 174.782 52.473 Q 175.325 53.581 175.325 55.219 Z" fill="#AEB3BA" fill-rule="nonzero"></path>
    </g>
    <circle class="teal" cx="69" cy="40" r="5.25"></circle>
  </g>
</svg>